<svg width="1000" height="1000" viewBox="0 0 1000 1000" fill="none" xmlns="http://www.w3.org/2000/svg">
<g clip-path="url(#clip0_22_11)">
<circle cx="500" cy="500" r="500" fill="white"/>
<path d="M154.028 448V277.6H248.108C286.508 277.6 307.628 295.84 307.628 329.68C307.628 362.56 286.508 382.72 248.108 382.72H186.188V448H154.028ZM246.428 306.4H186.188V353.92H246.428C265.388 353.92 274.508 344.56 274.508 330.16C274.508 314.8 265.628 306.4 246.428 306.4ZM423.012 448V428.8C420.612 433.6 408.852 450.64 381.972 450.64C350.772 450.64 324.852 426.88 324.852 387.28C324.852 347.92 350.772 323.92 382.212 323.92C407.892 323.92 420.132 339.76 422.772 344.8V326.56H453.492V448H423.012ZM423.252 387.28C423.252 366.64 410.052 350.8 390.132 350.8C369.492 350.8 356.052 366.64 356.052 387.28C356.052 407.92 369.492 423.76 390.132 423.76C410.052 423.76 423.252 407.92 423.252 387.28ZM523.564 384.16V448H493.084V326.56H523.564V346.96C526.684 340 536.044 325.84 562.924 325.84H591.244V356.32H558.844C532.924 356.32 523.564 364.96 523.564 384.16ZM714.469 420.64V448H680.869C652.069 448 638.869 434.32 638.869 408.4V352.72H605.509V326.56H638.869V277.6H669.589V326.56H714.469V352.72H669.589V399.04C669.589 414.4 674.629 420.64 691.189 420.64H714.469ZM866.22 326.56L791.34 499.12H760.62L783.66 445.84L728.94 326.56H763.5L799.26 409.12L835.02 326.56H866.22Z" fill="url(#paint0_linear_22_11)"/>
<path d="M318.384 666.96V696H180.864V525.6H213.024V666.96H318.384ZM346.471 555.12V518.64H378.391V555.12H346.471ZM347.191 696V574.56H377.911V696H347.191ZM509.413 692.88V676.08C506.773 681.36 494.053 698.16 467.653 698.16C435.973 698.16 409.813 674.4 409.813 635.04C409.813 595.44 435.973 571.92 467.653 571.92C494.053 571.92 506.533 588.48 509.173 593.04V574.56H539.893V693.36C539.893 726.72 518.533 750 474.613 750C427.812 750 412.693 720.96 410.773 712.08H446.053C447.973 714.48 454.693 724.56 474.613 724.56C496.693 724.56 509.413 713.04 509.413 692.88ZM509.653 635.04C509.653 614.64 496.213 598.8 475.573 598.8C454.453 598.8 441.013 614.64 441.013 635.04C441.013 655.2 454.453 671.28 475.573 671.28C496.213 671.28 509.653 655.2 509.653 635.04ZM609.931 631.2V696H579.451V519.36H609.931V594.96C614.491 586.32 628.171 571.92 650.251 571.92C680.731 571.92 700.891 594.24 700.891 625.2V696H669.931V631.2C669.931 612 658.651 599.28 640.411 599.28C621.931 599.28 609.931 612.24 609.931 631.2ZM831.305 668.64V696H797.705C768.905 696 755.705 682.32 755.705 656.4V600.72H722.345V574.56H755.705V525.6H786.425V574.56H831.305V600.72H786.425V647.04C786.425 662.4 791.465 668.64 808.025 668.64H831.305Z" fill="url(#paint1_linear_22_11)"/>
</g>
<defs>
<linearGradient id="paint0_linear_22_11" x1="0" y1="377" x2="1000" y2="377" gradientUnits="userSpaceOnUse">
<stop offset="0.230804" stop-color="#9B51E0"/>
<stop offset="1" stop-color="#3280ED"/>
</linearGradient>
<linearGradient id="paint1_linear_22_11" x1="0" y1="605" x2="1000" y2="605" gradientUnits="userSpaceOnUse">
<stop offset="0.230804" stop-color="#9B51E0"/>
<stop offset="1" stop-color="#3280ED"/>
</linearGradient>
<clipPath id="clip0_22_11">
<rect width="1000" height="1000" fill="white"/>
</clipPath>
</defs>
</svg>
