<svg width="2000" height="544" viewBox="0 0 2000 544" fill="none" xmlns="http://www.w3.org/2000/svg">
<rect width="2000" height="544" fill="#1E232F"/>
<path d="M265.03 445V267.5H368.78C409.03 267.5 432.53 287.5 432.53 324.75C432.53 361.75 409.03 382.5 368.78 382.5H307.28V445H265.03ZM364.78 304.5H307.28V345.5H364.78C381.03 345.5 389.03 337.75 389.03 325C389.03 311.25 381.03 304.5 364.78 304.5ZM550.337 445V426C548.087 430.25 535.837 447.75 508.587 447.75C476.087 447.75 449.837 422.25 449.837 380.25C449.837 338.5 476.087 313 508.837 313C535.087 313 547.587 329.25 549.837 333.5V315.5H590.337V445H550.337ZM550.337 380.25C550.337 361.5 538.837 347.5 520.837 347.5C502.837 347.5 490.837 361.5 490.837 380.25C490.837 399 502.837 413 520.837 413C538.837 413 550.337 399 550.337 380.25ZM666.776 381.75V445H626.276V315.5H666.776V335.75C669.526 329.75 678.776 315.25 706.026 315.25H733.776V355.25H698.276C675.276 355.25 666.776 363.75 666.776 381.75ZM865.589 409.25V445H825.089C794.839 445 780.839 430.75 780.839 403.75V349.25H747.339V315.5H780.839V267.5H821.589V315.5H865.589V349.25H821.589V389.5C821.589 403.5 825.839 409.25 841.089 409.25H865.589ZM1029.34 315.5L954.337 495.75H913.587L935.337 443L877.337 315.5H923.337L955.837 393.75L988.337 315.5H1029.34ZM1199.39 407.5V445H1052.14V267.5H1094.64V407.5H1199.39ZM1225.14 298.75V258.75H1267.64V298.75H1225.14ZM1226.14 445V315.5H1266.89V445H1226.14ZM1397.28 438.75V424.5C1395.28 428.75 1382.28 446 1355.03 446C1322.03 446 1295.78 420.5 1295.78 379.5C1295.78 338 1322.03 313 1355.28 313C1382.03 313 1394.78 329.5 1396.78 333.5V315.5H1437.28V439.75C1437.28 474.75 1415.78 498.5 1366.28 498.5C1317.03 498.5 1298.78 469.5 1296.78 458.75H1344.78C1346.03 460.75 1352.28 467 1366.28 467C1386.28 467 1397.28 457 1397.28 438.75ZM1397.28 379.5C1397.28 361.25 1385.78 347.5 1367.03 347.5C1348.28 347.5 1336.78 361.25 1336.78 379.5C1336.78 397.75 1348.28 411.5 1367.03 411.5C1385.78 411.5 1397.28 397.75 1397.28 379.5ZM1513.7 377V445H1473.2V261H1513.7V335.5C1518.2 327 1533.2 312.75 1555.45 312.75C1587.45 312.75 1608.2 336 1608.2 368.75V445H1567.45V377C1567.45 359.75 1556.95 348.75 1540.7 348.75C1524.45 348.75 1513.7 360 1513.7 377ZM1745.47 409.25V445H1704.97C1674.72 445 1660.72 430.75 1660.72 403.75V349.25H1627.22V315.5H1660.72V267.5H1701.47V315.5H1745.47V349.25H1701.47V389.5C1701.47 403.5 1705.72 409.25 1720.97 409.25H1745.47Z" fill="white"/>
<path d="M129.015 75.8V66.2H184.855V75.8H162.295V123H151.575V75.8H129.015ZM205.784 81.48C218.264 81.48 226.984 90.12 226.984 103.32V104.44H194.824C195.224 110.76 199.864 115.56 206.584 115.56C213.064 115.56 215.704 112.28 216.424 111.16H226.504C225.864 115.32 220.344 124.04 206.584 124.04C193.464 124.04 184.584 114.92 184.584 102.76C184.584 90.2 193.384 81.48 205.784 81.48ZM205.784 89.4C200.264 89.4 196.424 92.36 195.144 97.4H216.264C214.744 92.28 210.984 89.4 205.784 89.4ZM266.525 123L254.685 109.64L242.685 123H230.925L248.845 103L230.845 82.52H243.965L255.405 95.72L267.245 82.52H279.085L261.245 102.36L279.085 123H266.525ZM286.757 123V82.52H296.917V97.96H316.277V82.52H326.437V123H316.277V106.68H296.917V123H286.757ZM339.726 123V82.52H349.806V109.64L370.126 82.52H380.286V123H370.126V95.8L349.806 123H339.726ZM420.836 123V108.68L417.876 109.16C416.036 109.4 413.396 109.56 410.276 109.56C398.676 109.56 392.436 105.16 392.436 93.32V82.52H402.596V92.76C402.596 98.28 404.356 100.92 410.996 100.92C413.956 100.92 416.276 100.84 418.116 100.6C419.076 100.52 419.956 100.36 420.836 100.2V82.52H430.996V123H420.836ZM462.737 81.48C475.217 81.48 483.937 90.12 483.937 103.32V104.44H451.777C452.177 110.76 456.817 115.56 463.537 115.56C470.017 115.56 472.657 112.28 473.377 111.16H483.457C482.817 115.32 477.297 124.04 463.537 124.04C450.417 124.04 441.537 114.92 441.537 102.76C441.537 90.2 450.337 81.48 462.737 81.48ZM462.737 89.4C457.217 89.4 453.377 92.36 452.097 97.4H473.217C471.697 92.28 467.937 89.4 462.737 89.4ZM532.179 95.88H522.019C521.379 94.84 518.899 90.52 512.419 90.52C506.179 90.52 501.859 95.96 501.859 102.76C501.859 109.56 506.099 115 512.499 115C519.219 115 521.459 110.76 522.179 109.64H532.179C531.779 113.88 526.819 124.04 512.339 124.04C500.579 124.04 491.459 115.24 491.459 102.76C491.459 90.28 500.499 81.48 512.259 81.48C526.659 81.48 531.539 91.48 532.179 95.88ZM542.066 123V82.52H552.146V99.56L570.866 82.52H584.226L562.706 101.88L585.266 123H571.666L552.146 104.84V123H542.066ZM609.862 81.48C622.182 81.48 631.622 90.44 631.622 102.76C631.622 115.08 622.182 124.04 609.862 124.04C597.382 124.04 588.022 115.08 588.022 102.76C588.022 90.44 597.382 81.48 609.862 81.48ZM609.862 114.92C616.662 114.92 621.302 109.64 621.302 102.76C621.302 95.88 616.662 90.6 609.862 90.6C603.062 90.6 598.342 96.04 598.342 102.76C598.342 109.48 603.062 114.92 609.862 114.92ZM660.628 81.48C673.108 81.48 681.828 90.12 681.828 103.32V104.44H649.668C650.068 110.76 654.708 115.56 661.428 115.56C667.908 115.56 670.548 112.28 671.268 111.16H681.348C680.708 115.32 675.188 124.04 661.428 124.04C648.308 124.04 639.428 114.92 639.428 102.76C639.428 90.2 648.228 81.48 660.628 81.48ZM660.628 89.4C655.108 89.4 651.268 92.36 649.988 97.4H671.108C669.588 92.28 665.828 89.4 660.628 89.4ZM731.815 81.48C744.135 81.48 753.575 90.44 753.575 102.76C753.575 115.08 744.135 124.04 731.815 124.04C719.335 124.04 709.975 115.08 709.975 102.76C709.975 90.44 719.335 81.48 731.815 81.48ZM731.815 114.92C738.615 114.92 743.255 109.64 743.255 102.76C743.255 95.88 738.615 90.6 731.815 90.6C725.015 90.6 720.295 96.04 720.295 102.76C720.295 109.48 725.015 114.92 731.815 114.92ZM785.781 83.64C797.621 83.64 805.461 91.48 805.461 103.72C805.461 115.64 796.501 124.04 783.701 124.04C770.581 124.04 761.941 115.72 761.941 101.32C761.941 97.72 762.101 95.08 762.421 90.68C763.701 76.92 769.461 68.92 785.781 66.36L801.861 63.72V72.68L785.941 75.24C776.021 76.92 772.181 80.44 771.301 90.12C773.781 86.2 778.661 83.64 785.781 83.64ZM783.701 115.08C791.221 115.08 795.141 110.12 795.141 103.8C795.141 97.64 791.221 92.6 783.701 92.6C776.181 92.6 772.261 97.64 772.261 103.8C772.261 110.12 776.181 115.08 783.701 115.08ZM834.534 81.48C847.014 81.48 855.734 90.12 855.734 103.32V104.44H823.574C823.974 110.76 828.614 115.56 835.334 115.56C841.814 115.56 844.454 112.28 845.174 111.16H855.254C854.614 115.32 849.094 124.04 835.334 124.04C822.214 124.04 813.334 114.92 813.334 102.76C813.334 90.2 822.134 81.48 834.534 81.48ZM834.534 89.4C829.014 89.4 825.174 92.36 823.894 97.4H845.014C843.494 92.28 839.734 89.4 834.534 89.4ZM903.976 95.88H893.816C893.176 94.84 890.696 90.52 884.216 90.52C877.976 90.52 873.656 95.96 873.656 102.76C873.656 109.56 877.896 115 884.296 115C891.016 115 893.256 110.76 893.976 109.64H903.976C903.576 113.88 898.616 124.04 884.136 124.04C872.376 124.04 863.256 115.24 863.256 102.76C863.256 90.28 872.296 81.48 884.056 81.48C898.456 81.48 903.336 91.48 903.976 95.88ZM914.023 123V82.52H952.903V123H942.743V91.24H924.183V123H914.023ZM984.69 81.48C997.17 81.48 1005.89 90.12 1005.89 103.32V104.44H973.73C974.13 110.76 978.77 115.56 985.49 115.56C991.97 115.56 994.61 112.28 995.33 111.16H1005.41C1004.77 115.32 999.25 124.04 985.49 124.04C972.37 124.04 963.49 114.92 963.49 102.76C963.49 90.2 972.29 81.48 984.69 81.48ZM984.69 89.4C979.17 89.4 975.33 92.36 974.05 97.4H995.17C993.65 92.28 989.89 89.4 984.69 89.4ZM1043.1 123V108.68L1040.14 109.16C1038.3 109.4 1035.66 109.56 1032.54 109.56C1020.94 109.56 1014.7 105.16 1014.7 93.32V82.52H1024.86V92.76C1024.86 98.28 1026.62 100.92 1033.26 100.92C1036.22 100.92 1038.54 100.84 1040.38 100.6C1041.34 100.52 1042.22 100.36 1043.1 100.2V82.52H1053.26V123H1043.1ZM1085 81.48C1097.48 81.48 1106.2 90.12 1106.2 103.32V104.44H1074.04C1074.44 110.76 1079.08 115.56 1085.8 115.56C1092.28 115.56 1094.92 112.28 1095.64 111.16H1105.72C1105.08 115.32 1099.56 124.04 1085.8 124.04C1072.68 124.04 1063.8 114.92 1063.8 102.76C1063.8 90.2 1072.6 81.48 1085 81.48ZM1085 89.4C1079.48 89.4 1075.64 92.36 1074.36 97.4H1095.48C1093.96 92.28 1090.2 89.4 1085 89.4ZM1116.44 123V82.52H1126.6V97.96H1145.96V82.52H1156.12V123H1145.96V106.68H1126.6V123H1116.44ZM1169.41 123V82.52H1179.49V109.64L1199.81 82.52H1209.97V123H1199.81V95.8L1179.49 123H1169.41ZM1241.64 81.48C1254.12 81.48 1262.84 90.12 1262.84 103.32V104.44H1230.68C1231.08 110.76 1235.72 115.56 1242.44 115.56C1248.92 115.56 1251.56 112.28 1252.28 111.16H1262.36C1261.72 115.32 1256.2 124.04 1242.44 124.04C1229.32 124.04 1220.44 114.92 1220.44 102.76C1220.44 90.2 1229.24 81.48 1241.64 81.48ZM1241.64 89.4C1236.12 89.4 1232.28 92.36 1231 97.4H1252.12C1250.6 92.28 1246.84 89.4 1241.64 89.4ZM1293.71 123V82.52H1307.63L1321.07 110.6L1334.51 82.52H1348.11V123H1338.19V92.84L1324.03 123.16H1317.23L1303.15 93.08V123H1293.71ZM1379.85 81.48C1392.33 81.48 1401.05 90.12 1401.05 103.32V104.44H1368.89C1369.29 110.76 1373.93 115.56 1380.65 115.56C1387.13 115.56 1389.77 112.28 1390.49 111.16H1400.57C1399.93 115.32 1394.41 124.04 1380.65 124.04C1367.53 124.04 1358.65 114.92 1358.65 102.76C1358.65 90.2 1367.45 81.48 1379.85 81.48ZM1379.85 89.4C1374.33 89.4 1370.49 92.36 1369.21 97.4H1390.33C1388.81 92.28 1385.05 89.4 1379.85 89.4ZM1421.37 116.84V139.96H1411.29V82.52H1421.45V88.92C1422.09 87.4 1426.73 81.64 1435.37 81.64C1445.93 81.64 1454.57 89.56 1454.57 102.76C1454.57 115.96 1445.93 123.88 1435.37 123.88C1426.57 123.88 1422.17 118.44 1421.37 116.84ZM1421.29 102.76C1421.29 109.64 1425.77 114.92 1432.73 114.92C1439.77 114.92 1444.25 109.64 1444.25 102.76C1444.25 95.8 1439.77 90.6 1432.73 90.6C1425.77 90.6 1421.29 95.8 1421.29 102.76ZM1484.31 81.48C1496.63 81.48 1506.07 90.44 1506.07 102.76C1506.07 115.08 1496.63 124.04 1484.31 124.04C1471.83 124.04 1462.47 115.08 1462.47 102.76C1462.47 90.44 1471.83 81.48 1484.31 81.48ZM1484.31 114.92C1491.11 114.92 1495.75 109.64 1495.75 102.76C1495.75 95.88 1491.11 90.6 1484.31 90.6C1477.51 90.6 1472.79 96.04 1472.79 102.76C1472.79 109.48 1477.51 114.92 1484.31 114.92ZM1516.6 123V82.52H1555.48V123H1545.32V91.24H1526.76V123H1516.6ZM1578.87 116.84V139.96H1568.79V82.52H1578.95V88.92C1579.59 87.4 1584.23 81.64 1592.87 81.64C1603.43 81.64 1612.07 89.56 1612.07 102.76C1612.07 115.96 1603.43 123.88 1592.87 123.88C1584.07 123.88 1579.67 118.44 1578.87 116.84ZM1578.79 102.76C1578.79 109.64 1583.27 114.92 1590.23 114.92C1597.27 114.92 1601.75 109.64 1601.75 102.76C1601.75 95.8 1597.27 90.6 1590.23 90.6C1583.27 90.6 1578.79 95.8 1578.79 102.76ZM1622.69 123V82.52H1632.77V109.64L1653.09 82.52H1663.25V123H1653.09V95.8L1632.77 123H1622.69ZM1713.72 123H1703.56V109.4H1694.28L1684.84 123H1673.4L1684.12 107.88C1677.64 106.2 1674.76 101.8 1674.76 95.72C1674.76 88.68 1679.32 82.52 1689.96 82.52H1713.72V123ZM1691.32 101.08H1703.56V90.76H1691.32C1687.24 90.76 1685.16 92.44 1685.16 95.8C1685.16 99.08 1687.24 101.08 1691.32 101.08ZM1738.27 123V91.24H1722.51V82.52H1764.11V91.24H1748.43V123H1738.27ZM1773.09 123V82.52H1783.17V109.64L1803.49 82.52H1813.65V123H1803.49V95.8L1783.17 123H1773.09ZM1826.84 123V82.52H1836.92V109.64L1857.24 82.52H1867.4V123H1857.24V95.8L1836.92 123H1826.84ZM1847.24 69.56C1850.36 69.56 1851.64 67.16 1851.64 64.68V63.32H1859.72V64.84C1859.72 71.64 1855.8 77.08 1847.24 77.08C1838.68 77.08 1834.76 71.64 1834.76 64.84V63.32H1842.84V64.68C1842.84 67.16 1844.12 69.56 1847.24 69.56Z" fill="white"/>
<path d="M617.885 209.6L620.045 187.52H652.685V228H642.525V196.24H628.365L627.005 210.64C625.965 222.8 622.685 228.4 613.085 228.4H610.365V219.12H611.325C616.045 219.12 617.245 217.04 617.885 209.6ZM665.777 228V187.52H675.937V202.96H682.497C684.657 193.12 692.817 186.48 703.377 186.48C715.537 186.48 724.737 195.44 724.737 207.76C724.737 220.08 715.537 229.04 703.377 229.04C692.497 229.04 684.017 221.92 682.337 211.68H675.937V228H665.777ZM703.377 220C710.017 220 714.417 214.56 714.417 207.76C714.417 200.96 710.017 195.52 703.377 195.52C696.737 195.52 692.337 200.96 692.337 207.76C692.337 214.56 696.737 220 703.377 220ZM756.992 188.64C768.832 188.64 776.672 196.48 776.672 208.72C776.672 220.64 767.712 229.04 754.912 229.04C741.792 229.04 733.152 220.72 733.152 206.32C733.152 202.72 733.312 200.08 733.632 195.68C734.912 181.92 740.672 173.92 756.992 171.36L773.072 168.72V177.68L757.152 180.24C747.232 181.92 743.392 185.44 742.512 195.12C744.992 191.2 749.872 188.64 756.992 188.64ZM754.912 220.08C762.432 220.08 766.352 215.12 766.352 208.8C766.352 202.64 762.432 197.6 754.912 197.6C747.392 197.6 743.472 202.64 743.472 208.8C743.472 215.12 747.392 220.08 754.912 220.08ZM806.385 186.48C818.705 186.48 828.145 195.44 828.145 207.76C828.145 220.08 818.705 229.04 806.385 229.04C793.905 229.04 784.545 220.08 784.545 207.76C784.545 195.44 793.905 186.48 806.385 186.48ZM806.385 219.92C813.185 219.92 817.825 214.64 817.825 207.76C817.825 200.88 813.185 195.6 806.385 195.6C799.585 195.6 794.865 201.04 794.865 207.76C794.865 214.48 799.585 219.92 806.385 219.92ZM838.511 228V187.52H869.871V196.24H848.671V228H838.511ZM896.385 186.48C908.705 186.48 918.145 195.44 918.145 207.76C918.145 220.08 908.705 229.04 896.385 229.04C883.905 229.04 874.545 220.08 874.545 207.76C874.545 195.44 883.905 186.48 896.385 186.48ZM896.385 219.92C903.185 219.92 907.825 214.64 907.825 207.76C907.825 200.88 903.185 195.6 896.385 195.6C889.585 195.6 884.865 201.04 884.865 207.76C884.865 214.48 889.585 219.92 896.385 219.92ZM949.296 228V187.52H963.216L976.656 215.6L990.096 187.52H1003.7V228H993.776V197.84L979.616 228.16H972.816L958.736 198.08V228H949.296ZM1047.03 228V221.6C1046.23 223.2 1042.31 228.88 1033.35 228.88C1022.95 228.88 1014.31 220.96 1014.31 207.76C1014.31 194.64 1022.95 186.64 1033.43 186.64C1041.99 186.64 1046.07 191.92 1046.95 193.6V187.52H1057.19V228H1047.03ZM1047.11 207.76C1047.11 200.88 1042.71 195.6 1036.07 195.6C1029.19 195.6 1024.71 200.88 1024.71 207.76C1024.71 214.64 1029.19 219.92 1036.07 219.92C1042.71 219.92 1047.11 214.64 1047.11 207.76ZM1108.39 200.88H1098.23C1097.59 199.84 1095.11 195.52 1088.63 195.52C1082.39 195.52 1078.07 200.96 1078.07 207.76C1078.07 214.56 1082.31 220 1088.71 220C1095.43 220 1097.67 215.76 1098.39 214.64H1108.39C1107.99 218.88 1103.03 229.04 1088.55 229.04C1076.79 229.04 1067.67 220.24 1067.67 207.76C1067.67 195.28 1076.71 186.48 1088.47 186.48C1102.87 186.48 1107.75 196.48 1108.39 200.88ZM1118.44 187.52H1128.6V219.28H1144.84V187.52H1155V219.28H1171.24V187.52H1181.4V228H1118.44V187.52ZM1206.05 228V196.24H1190.29V187.52H1231.89V196.24H1216.21V228H1206.05ZM1269.77 228V221.6C1268.97 223.2 1265.05 228.88 1256.09 228.88C1245.69 228.88 1237.05 220.96 1237.05 207.76C1237.05 194.64 1245.69 186.64 1256.17 186.64C1264.73 186.64 1268.81 191.92 1269.69 193.6V187.52H1279.93V228H1269.77ZM1269.85 207.76C1269.85 200.88 1265.45 195.6 1258.81 195.6C1251.93 195.6 1247.45 200.88 1247.45 207.76C1247.45 214.64 1251.93 219.92 1258.81 219.92C1265.45 219.92 1269.85 214.64 1269.85 207.76ZM1314.8 188.64C1326.64 188.64 1334.48 196.48 1334.48 208.72C1334.48 220.64 1325.52 229.04 1312.72 229.04C1299.6 229.04 1290.96 220.72 1290.96 206.32C1290.96 202.72 1291.12 200.08 1291.44 195.68C1292.72 181.92 1298.48 173.92 1314.8 171.36L1330.88 168.72V177.68L1314.96 180.24C1305.04 181.92 1301.2 185.44 1300.32 195.12C1302.8 191.2 1307.68 188.64 1314.8 188.64ZM1312.72 220.08C1320.24 220.08 1324.16 215.12 1324.16 208.8C1324.16 202.64 1320.24 197.6 1312.72 197.6C1305.2 197.6 1301.28 202.64 1301.28 208.8C1301.28 215.12 1305.2 220.08 1312.72 220.08ZM1375.16 228V221.6C1374.36 223.2 1370.44 228.88 1361.48 228.88C1351.08 228.88 1342.44 220.96 1342.44 207.76C1342.44 194.64 1351.08 186.64 1361.56 186.64C1370.12 186.64 1374.2 191.92 1375.08 193.6V187.52H1385.32V228H1375.16ZM1375.24 207.76C1375.24 200.88 1370.84 195.6 1364.2 195.6C1357.32 195.6 1352.84 200.88 1352.84 207.76C1352.84 214.64 1357.32 219.92 1364.2 219.92C1370.84 219.92 1375.24 214.64 1375.24 207.76Z" fill="url(#paint0_linear_1_2)"/>
<defs>
<linearGradient id="paint0_linear_1_2" x1="0" y1="197.5" x2="2000" y2="197.5" gradientUnits="userSpaceOnUse">
<stop offset="0.230804" stop-color="#9B51E0"/>
<stop offset="1" stop-color="#3280ED"/>
</linearGradient>
</defs>
</svg>
